<svg width="158" height="31" viewBox="0 0 158 31" fill="none" xmlns="http://www.w3.org/2000/svg">
<path d="M39.5879 13.8435L35.0854 18.346L20.9242 4.18486L17.4565 0.717184C17.4656 0.717184 17.4747 0.717186 17.4747 0.708108C18.4369 0.345001 19.4627 0.118057 20.5339 0.0454357C20.552 0.0454357 20.5702 0.0454357 20.5883 0.0454357C20.8244 0.0272803 21.0604 0.0182037 21.2964 0.0182037C21.6958 0.0182037 22.0952 0.0454357 22.4765 0.0908241C24.6642 0.326844 26.6613 1.21646 28.2681 2.55996C28.3407 2.61442 28.4133 2.67797 28.4769 2.74151L28.5132 2.76874L28.5858 2.84136L39.5879 13.8435Z" fill="url(#paint0_linear_32_146)"/>
<path d="M28.6947 2.92302C28.6584 2.89578 28.6312 2.86855 28.5949 2.84132C28.5313 2.78685 28.4678 2.72331 28.3952 2.67792C28.2681 2.57806 28.1319 2.48729 27.9958 2.40559C27.8142 2.2785 27.6145 2.17864 27.4057 2.08787C27.3331 2.06063 27.2695 2.02432 27.1969 1.99709C27.1334 1.96986 27.0608 1.94263 26.9881 1.92447C26.9246 1.89724 26.852 1.87908 26.7884 1.86093C26.7249 1.84277 26.6613 1.82461 26.5887 1.80646C26.5796 1.80646 26.5706 1.80646 26.5615 1.79738C26.5524 1.79738 26.5524 1.79738 26.5433 1.7883C26.4798 1.77015 26.4162 1.76107 26.3436 1.74292C26.271 1.73384 26.1984 1.71568 26.1258 1.70661C26.0531 1.69753 25.9896 1.68845 25.917 1.67937C25.7627 1.66122 25.5993 1.65214 25.4359 1.65214C24.519 1.65214 23.6657 1.90632 22.9213 2.34204C22.7489 2.4419 22.5855 2.55991 22.4311 2.67792C22.2496 2.82316 22.0771 2.97748 21.9137 3.14088C21.8502 3.2135 21.4961 3.58569 20.9515 4.15758C20.9515 4.15758 20.9424 4.16666 20.9333 4.17573C18.1465 7.14414 10.3851 15.4321 10.3851 15.4321L9.77685 14.8148L8.07025 13.1082L5.8916 10.9205L13.7166 3.09549C14.7787 2.05156 16.0586 1.23457 17.4747 0.698983C17.4838 0.698983 17.4929 0.698982 17.4929 0.689905C18.4551 0.326797 19.4809 0.0998562 20.5521 0.0272347C20.5702 0.0272347 20.5884 0.0272347 20.6065 0.0272347C20.8425 0.00907935 21.0786 0 21.3146 0C21.714 0 22.1134 0.0272347 22.4947 0.0726231C24.6824 0.308643 26.6795 1.19825 28.2862 2.54175C28.3589 2.59622 28.4315 2.65976 28.495 2.72331L28.5313 2.75054C28.5767 2.81408 28.6403 2.86855 28.6947 2.92302Z" fill="url(#paint1_linear_32_146)"/>
<path d="M0 16.8573L4.51161 12.3457L18.6728 26.5069L22.1405 29.9746C22.1314 29.9746 22.1223 29.9746 22.1223 29.9837C21.1601 30.3468 20.1343 30.5737 19.0631 30.6463C19.045 30.6463 19.0268 30.6463 19.0087 30.6463C18.7726 30.6645 18.5366 30.6736 18.3006 30.6736C17.9012 30.6736 17.5018 30.6463 17.1205 30.6009C14.9328 30.3649 12.9357 29.4753 11.3289 28.1318C11.2563 28.0774 11.1837 28.0138 11.1202 27.9503L11.0838 27.923L11.0112 27.8504L0 16.8573Z" fill="url(#paint2_linear_32_146)"/>
<path d="M10.9023 27.7779C10.9387 27.8051 10.9659 27.8323 11.0022 27.8595C11.0657 27.914 11.1293 27.9776 11.2019 28.0229C11.329 28.1228 11.4652 28.2136 11.6013 28.2953C11.7829 28.4224 11.9826 28.5222 12.1914 28.613C12.264 28.6402 12.3275 28.6765 12.4002 28.7038C12.4637 28.731 12.5363 28.7582 12.6089 28.7764C12.6725 28.8036 12.7451 28.8218 12.8087 28.8399C12.8722 28.8581 12.9357 28.8763 13.0084 28.8944C13.0174 28.8944 13.0265 28.8944 13.0356 28.9035C13.0447 28.9035 13.0447 28.9035 13.0538 28.9126C13.1173 28.9307 13.1808 28.9398 13.2535 28.958C13.3261 28.967 13.3987 28.9852 13.4713 28.9943C13.544 29.0033 13.6075 29.0124 13.6801 29.0215C13.8344 29.0396 13.9978 29.0487 14.1612 29.0487C15.0781 29.0487 15.9314 28.7945 16.6758 28.3588C16.8482 28.259 17.0116 28.141 17.1659 28.0229C17.3475 27.8777 17.52 27.7234 17.6834 27.56C17.7469 27.4874 18.1009 27.1152 18.6456 26.5433C18.6456 26.5433 18.6547 26.5342 18.6638 26.5251C21.4506 23.5567 29.212 15.2688 29.212 15.2688L29.8202 15.8861L31.5268 17.5927L33.7055 19.7804L25.8896 27.5872C24.8275 28.6312 23.5476 29.4481 22.1314 29.9837C22.1224 29.9837 22.1133 29.9837 22.1133 29.9928C21.151 30.3559 20.1253 30.5829 19.0541 30.6555C19.0359 30.6555 19.0178 30.6555 18.9996 30.6555C18.7636 30.6736 18.5276 30.6827 18.2916 30.6827C17.8922 30.6827 17.4927 30.6555 17.1115 30.6101C14.9238 30.3741 12.9267 29.4845 11.3199 28.141C11.2473 28.0865 11.1747 28.023 11.1111 27.9594L11.0748 27.9322C11.0113 27.8868 10.9568 27.8323 10.9023 27.7779Z" fill="url(#paint3_linear_32_146)"/>
<path d="M61.3286 27.5735H56.7353L49.4368 19.3492V27.5735H45.5879V2.64622H49.4368V17.6426L56.3449 9.7722H61.0472L53.2131 18.4958L61.3286 27.5735ZM69.2806 28.0365C66.6663 28.0365 64.4513 27.1378 62.6176 25.3313C60.793 23.5249 59.8762 21.3099 59.8762 18.6683C59.8762 16.0358 60.793 13.8118 62.6176 12.0053C64.4422 10.1988 66.6663 9.30016 69.2806 9.30016C71.9132 9.30016 74.1463 10.1988 75.9618 12.0053C77.7774 13.8118 78.6851 16.0267 78.6851 18.6683C78.6851 21.3009 77.7774 23.5249 75.9618 25.3313C74.1463 27.1287 71.9223 28.0365 69.2806 28.0365ZM65.3319 22.6897C66.403 23.7609 67.7193 24.2965 69.2806 24.2965C70.8511 24.2965 72.1674 23.7609 73.2294 22.6897C74.3006 21.6186 74.8362 20.2842 74.8362 18.6683C74.8362 17.0525 74.3006 15.709 73.2294 14.6469C72.1583 13.5757 70.842 13.0402 69.2806 13.0402C67.7102 13.0402 66.3939 13.5757 65.3319 14.6469C64.2607 15.7181 63.7251 17.0525 63.7251 18.6683C63.7251 20.2842 64.2607 21.6277 65.3319 22.6897ZM89.9142 9.30016C91.9567 9.30016 93.6088 9.95375 94.8616 11.2609C96.1234 12.5681 96.7497 14.3564 96.7497 16.6349V27.5645H92.9008V17.0343C92.9008 15.709 92.5468 14.6832 91.8296 13.9752C91.1216 13.2671 90.1412 12.904 88.9066 12.904C87.554 12.904 86.4647 13.3216 85.6296 14.1658C84.7944 15.01 84.3859 16.2991 84.3859 18.0329V27.5735H80.5461V9.76312H84.395V12.0416C85.5569 10.217 87.3997 9.30016 89.9142 9.30016ZM111.047 9.76312H115.25L108.306 27.5735H103.858L96.9131 9.76312H101.116L106.1 23.2979L111.047 9.76312ZM129.429 9.76312H133.278V27.5735H129.429V25.0045C127.977 27.0198 125.907 28.0274 123.193 28.0274C120.751 28.0274 118.654 27.1196 116.929 25.3041C115.196 23.4886 114.333 21.2736 114.333 18.6592C114.333 16.0267 115.196 13.8027 116.929 11.9962C118.663 10.1898 120.751 9.29108 123.193 9.29108C125.898 9.29108 127.977 10.2896 129.429 12.2867V9.76312ZM119.78 22.7442C120.851 23.8244 122.185 24.3691 123.801 24.3691C125.417 24.3691 126.761 23.8335 127.823 22.7442C128.894 21.664 129.429 20.3023 129.429 18.6683C129.429 17.0343 128.894 15.6727 127.823 14.5924C126.751 13.5122 125.417 12.9675 123.801 12.9675C122.185 12.9675 120.842 13.5122 119.78 14.5924C118.709 15.6727 118.173 17.0343 118.173 18.6683C118.173 20.3023 118.709 21.664 119.78 22.7442ZM139.342 12.7588C140.314 10.5529 142.147 9.4454 144.825 9.4454V13.6121C143.355 13.5213 142.075 13.8662 140.976 14.6651C139.887 15.4639 139.333 16.7711 139.333 18.6048V27.5826H135.484V9.76312H139.333V12.7588H139.342ZM157.725 13.4668H153.304V22.018C153.304 22.7533 153.467 23.2798 153.803 23.6066C154.139 23.9243 154.629 24.1059 155.283 24.1422C155.936 24.1785 156.744 24.1694 157.725 24.124V27.5826C154.783 27.9366 152.668 27.6825 151.388 26.8201C150.108 25.9577 149.464 24.36 149.464 22.0271V13.4759H146.187V9.7722H149.464V5.92326L153.313 4.77947V9.76312H157.734V13.4668H157.725Z" fill="white"/>
<defs>
<linearGradient id="paint0_linear_32_146" x1="3.53189" y1="-13.2512" x2="37.8203" y2="15.623" gradientUnits="userSpaceOnUse">
<stop stop-color="#021166"/>
<stop offset="1" stop-color="#10E5C6"/>
</linearGradient>
<linearGradient id="paint1_linear_32_146" x1="25.3242" y1="-0.68394" x2="4.72896" y2="17.7561" gradientUnits="userSpaceOnUse">
<stop stop-color="#10E5C6"/>
<stop offset="1" stop-color="#7AE7DB"/>
</linearGradient>
<linearGradient id="paint2_linear_32_146" x1="36.0616" y1="43.952" x2="1.77319" y2="15.0779" gradientUnits="userSpaceOnUse">
<stop stop-color="#021166"/>
<stop offset="1" stop-color="#10E5C6"/>
</linearGradient>
<linearGradient id="paint3_linear_32_146" x1="14.2694" y1="31.3848" x2="34.8646" y2="12.9447" gradientUnits="userSpaceOnUse">
<stop stop-color="#10E5C6"/>
<stop offset="1" stop-color="#7AE7DB"/>
</linearGradient>
</defs>
</svg>
